<mxfile host="app.diagrams.net" agent="Mozilla/5.0 (Windows NT 10.0; Win64; x64) AppleWebKit/537.36 (KHTML, like Gecko) Chrome/131.0.0.0 Safari/537.36" version="25.0.3">
  <diagram name="Página-1" id="k7DgIlNx19OB_0JjVa8J">
    <mxGraphModel dx="1195" dy="650" grid="1" gridSize="10" guides="1" tooltips="1" connect="1" arrows="1" fold="1" page="1" pageScale="1" pageWidth="850" pageHeight="1100" math="0" shadow="0">
      <root>
        <mxCell id="0" />
        <mxCell id="1" parent="0" />
        <mxCell id="IWOhlPsnRBntiMOB0Da2-1" value="Usuario" style="shape=umlActor;verticalLabelPosition=bottom;verticalAlign=top;html=1;outlineConnect=0;" vertex="1" parent="1">
          <mxGeometry x="110" y="380" width="30" height="60" as="geometry" />
        </mxCell>
        <mxCell id="IWOhlPsnRBntiMOB0Da2-2" value="" style="endArrow=classic;html=1;rounded=0;" edge="1" parent="1" target="IWOhlPsnRBntiMOB0Da2-3">
          <mxGeometry width="50" height="50" relative="1" as="geometry">
            <mxPoint x="160" y="400" as="sourcePoint" />
            <mxPoint x="290" y="400" as="targetPoint" />
          </mxGeometry>
        </mxCell>
        <mxCell id="IWOhlPsnRBntiMOB0Da2-3" value="Modificación de datos" style="shape=umlBoundary;whiteSpace=wrap;html=1;" vertex="1" parent="1">
          <mxGeometry x="280" y="360" width="100" height="80" as="geometry" />
        </mxCell>
        <mxCell id="IWOhlPsnRBntiMOB0Da2-4" value="" style="html=1;verticalAlign=bottom;endArrow=block;curved=0;rounded=0;entryX=0;entryY=0.504;entryDx=0;entryDy=0;entryPerimeter=0;exitX=0.981;exitY=0.504;exitDx=0;exitDy=0;exitPerimeter=0;" edge="1" parent="1" source="IWOhlPsnRBntiMOB0Da2-3" target="IWOhlPsnRBntiMOB0Da2-5">
          <mxGeometry width="80" relative="1" as="geometry">
            <mxPoint x="380" y="399.71" as="sourcePoint" />
            <mxPoint x="460" y="399.71" as="targetPoint" />
          </mxGeometry>
        </mxCell>
        <mxCell id="IWOhlPsnRBntiMOB0Da2-35" value="" style="edgeStyle=orthogonalEdgeStyle;rounded=0;orthogonalLoop=1;jettySize=auto;html=1;" edge="1" parent="1" source="IWOhlPsnRBntiMOB0Da2-5" target="IWOhlPsnRBntiMOB0Da2-8">
          <mxGeometry relative="1" as="geometry" />
        </mxCell>
        <mxCell id="IWOhlPsnRBntiMOB0Da2-5" value="Validación de información" style="ellipse;shape=umlControl;whiteSpace=wrap;html=1;" vertex="1" parent="1">
          <mxGeometry x="460" y="360" width="70" height="80" as="geometry" />
        </mxCell>
        <mxCell id="IWOhlPsnRBntiMOB0Da2-6" value="" style="endArrow=classic;startArrow=classic;html=1;rounded=0;entryX=0;entryY=0.5;entryDx=0;entryDy=0;" edge="1" parent="1" source="IWOhlPsnRBntiMOB0Da2-5" target="IWOhlPsnRBntiMOB0Da2-8">
          <mxGeometry width="50" height="50" relative="1" as="geometry">
            <mxPoint x="530" y="400" as="sourcePoint" />
            <mxPoint x="630" y="400" as="targetPoint" />
          </mxGeometry>
        </mxCell>
        <mxCell id="IWOhlPsnRBntiMOB0Da2-8" value="Datos del usuario" style="ellipse;shape=umlEntity;whiteSpace=wrap;html=1;" vertex="1" parent="1">
          <mxGeometry x="630" y="360" width="80" height="80" as="geometry" />
        </mxCell>
        <mxCell id="IWOhlPsnRBntiMOB0Da2-9" value="" style="html=1;verticalAlign=bottom;endArrow=block;curved=0;rounded=0;entryX=1.036;entryY=0.504;entryDx=0;entryDy=0;entryPerimeter=0;" edge="1" parent="1" target="IWOhlPsnRBntiMOB0Da2-12">
          <mxGeometry x="0.0036" width="80" relative="1" as="geometry">
            <mxPoint x="500" y="441" as="sourcePoint" />
            <mxPoint x="495" y="520" as="targetPoint" />
            <Array as="points">
              <mxPoint x="500" y="560" />
              <mxPoint x="440" y="560" />
            </Array>
            <mxPoint as="offset" />
          </mxGeometry>
        </mxCell>
        <mxCell id="IWOhlPsnRBntiMOB0Da2-12" value="Mensaje" style="shape=umlBoundary;whiteSpace=wrap;html=1;" vertex="1" parent="1">
          <mxGeometry x="270" y="520" width="100" height="80" as="geometry" />
        </mxCell>
        <mxCell id="IWOhlPsnRBntiMOB0Da2-13" value="" style="endArrow=classic;html=1;rounded=0;exitX=-0.016;exitY=0.511;exitDx=0;exitDy=0;exitPerimeter=0;" edge="1" parent="1" source="IWOhlPsnRBntiMOB0Da2-12" target="IWOhlPsnRBntiMOB0Da2-1">
          <mxGeometry width="50" height="50" relative="1" as="geometry">
            <mxPoint x="260" y="560" as="sourcePoint" />
            <mxPoint x="70" y="560" as="targetPoint" />
            <Array as="points">
              <mxPoint x="80" y="560" />
              <mxPoint x="80" y="410" />
            </Array>
          </mxGeometry>
        </mxCell>
        <mxCell id="IWOhlPsnRBntiMOB0Da2-36" value="Usuario" style="shape=umlActor;verticalLabelPosition=bottom;verticalAlign=top;html=1;outlineConnect=0;" vertex="1" parent="1">
          <mxGeometry x="100" y="710" width="30" height="60" as="geometry" />
        </mxCell>
        <mxCell id="IWOhlPsnRBntiMOB0Da2-37" value="" style="endArrow=classic;html=1;rounded=0;" edge="1" parent="1">
          <mxGeometry width="50" height="50" relative="1" as="geometry">
            <mxPoint x="150" y="730" as="sourcePoint" />
            <mxPoint x="270" y="730" as="targetPoint" />
          </mxGeometry>
        </mxCell>
        <mxCell id="IWOhlPsnRBntiMOB0Da2-38" value="" style="html=1;verticalAlign=bottom;endArrow=block;curved=0;rounded=0;entryX=0;entryY=0.504;entryDx=0;entryDy=0;entryPerimeter=0;exitX=0.981;exitY=0.504;exitDx=0;exitDy=0;exitPerimeter=0;" edge="1" parent="1">
          <mxGeometry width="80" relative="1" as="geometry">
            <mxPoint x="368" y="730" as="sourcePoint" />
            <mxPoint x="450" y="730" as="targetPoint" />
          </mxGeometry>
        </mxCell>
        <mxCell id="IWOhlPsnRBntiMOB0Da2-39" value="" style="edgeStyle=orthogonalEdgeStyle;rounded=0;orthogonalLoop=1;jettySize=auto;html=1;" edge="1" parent="1">
          <mxGeometry relative="1" as="geometry">
            <mxPoint x="520" y="730" as="sourcePoint" />
            <mxPoint x="620" y="730" as="targetPoint" />
          </mxGeometry>
        </mxCell>
        <mxCell id="IWOhlPsnRBntiMOB0Da2-40" value="" style="endArrow=classic;startArrow=classic;html=1;rounded=0;entryX=0;entryY=0.5;entryDx=0;entryDy=0;" edge="1" parent="1">
          <mxGeometry width="50" height="50" relative="1" as="geometry">
            <mxPoint x="520" y="730" as="sourcePoint" />
            <mxPoint x="620" y="730" as="targetPoint" />
          </mxGeometry>
        </mxCell>
        <mxCell id="IWOhlPsnRBntiMOB0Da2-41" value="" style="html=1;verticalAlign=bottom;endArrow=block;curved=0;rounded=0;entryX=1.036;entryY=0.504;entryDx=0;entryDy=0;entryPerimeter=0;" edge="1" parent="1" target="IWOhlPsnRBntiMOB0Da2-42">
          <mxGeometry x="0.0036" width="80" relative="1" as="geometry">
            <mxPoint x="490" y="771" as="sourcePoint" />
            <mxPoint x="485" y="850" as="targetPoint" />
            <Array as="points">
              <mxPoint x="490" y="890" />
              <mxPoint x="430" y="890" />
            </Array>
            <mxPoint as="offset" />
          </mxGeometry>
        </mxCell>
        <mxCell id="IWOhlPsnRBntiMOB0Da2-42" value="Error" style="shape=umlBoundary;whiteSpace=wrap;html=1;" vertex="1" parent="1">
          <mxGeometry x="260" y="850" width="100" height="80" as="geometry" />
        </mxCell>
        <mxCell id="IWOhlPsnRBntiMOB0Da2-43" value="" style="endArrow=classic;html=1;rounded=0;exitX=-0.016;exitY=0.511;exitDx=0;exitDy=0;exitPerimeter=0;" edge="1" parent="1" source="IWOhlPsnRBntiMOB0Da2-42" target="IWOhlPsnRBntiMOB0Da2-36">
          <mxGeometry width="50" height="50" relative="1" as="geometry">
            <mxPoint x="250" y="890" as="sourcePoint" />
            <mxPoint x="60" y="890" as="targetPoint" />
            <Array as="points">
              <mxPoint x="70" y="890" />
              <mxPoint x="70" y="740" />
            </Array>
          </mxGeometry>
        </mxCell>
        <mxCell id="IWOhlPsnRBntiMOB0Da2-44" value="Modificación de datos" style="shape=umlBoundary;whiteSpace=wrap;html=1;" vertex="1" parent="1">
          <mxGeometry x="260" y="690" width="100" height="80" as="geometry" />
        </mxCell>
        <mxCell id="IWOhlPsnRBntiMOB0Da2-45" value="Validación de información" style="ellipse;shape=umlControl;whiteSpace=wrap;html=1;" vertex="1" parent="1">
          <mxGeometry x="450" y="690" width="70" height="80" as="geometry" />
        </mxCell>
        <mxCell id="IWOhlPsnRBntiMOB0Da2-46" value="Datos del usuario" style="ellipse;shape=umlEntity;whiteSpace=wrap;html=1;" vertex="1" parent="1">
          <mxGeometry x="610" y="690" width="80" height="80" as="geometry" />
        </mxCell>
        <mxCell id="IWOhlPsnRBntiMOB0Da2-47" value="Mensaje de modificación" style="shape=umlBoundary;whiteSpace=wrap;html=1;" vertex="1" parent="1">
          <mxGeometry x="260" y="610" width="100" height="80" as="geometry" />
        </mxCell>
        <mxCell id="IWOhlPsnRBntiMOB0Da2-48" value="" style="endArrow=classic;html=1;rounded=0;exitX=-0.017;exitY=0.5;exitDx=0;exitDy=0;exitPerimeter=0;entryX=0.5;entryY=0;entryDx=0;entryDy=0;entryPerimeter=0;" edge="1" parent="1" source="IWOhlPsnRBntiMOB0Da2-47" target="IWOhlPsnRBntiMOB0Da2-36">
          <mxGeometry width="50" height="50" relative="1" as="geometry">
            <mxPoint x="80" y="675" as="sourcePoint" />
            <mxPoint x="130" y="625" as="targetPoint" />
            <Array as="points">
              <mxPoint x="115" y="650" />
            </Array>
          </mxGeometry>
        </mxCell>
        <mxCell id="IWOhlPsnRBntiMOB0Da2-49" value="" style="endArrow=classic;html=1;rounded=0;entryX=1.017;entryY=0.396;entryDx=0;entryDy=0;entryPerimeter=0;exitX=0.375;exitY=0;exitDx=0;exitDy=0;exitPerimeter=0;" edge="1" parent="1" source="IWOhlPsnRBntiMOB0Da2-46" target="IWOhlPsnRBntiMOB0Da2-47">
          <mxGeometry width="50" height="50" relative="1" as="geometry">
            <mxPoint x="660" y="650" as="sourcePoint" />
            <mxPoint x="360" y="620" as="targetPoint" />
            <Array as="points">
              <mxPoint x="640" y="640" />
            </Array>
          </mxGeometry>
        </mxCell>
      </root>
    </mxGraphModel>
  </diagram>
</mxfile>
